<svg id="Capa_1" enable-background="new 0 0 512 512" height="512" viewBox="0 0 512 512" width="512" xmlns="http://www.w3.org/2000/svg"><g><g><path d="m241 92.647h22.5v114.693h-22.5z" fill="#a20589"/><path d="m256 92.647h15v114.693h-15z" fill="#5f05a7"/><path d="m241 304.659h22.5v114.693h-22.5z" fill="#a20589"/><path d="m256 304.659h15v114.693h-15z" fill="#5f05a7"/><path d="m304.659 241h114.693v30h-114.693z" fill="#5f05a7"/><path d="m92.647 241h114.693v30h-114.693z" fill="#a20589"/></g><g><path d="m92.647 77.647v30h163.353l7.5-15-7.5-15z" fill="#5f05a7"/><path d="m256 77.647h163.353v30h-163.353z" fill="#2d0390"/><path d="m92.647 434.353h163.353l7.5-15-7.5-15h-163.353z" fill="#5f05a7"/><path d="m256 404.353h163.353v30h-163.353z" fill="#2d0390"/><path d="m192.341 256c0 35.102 28.558 63.659 63.659 63.659l15-15-15-15c-18.56 0-33.659-15.1-33.659-33.659s15.1-33.659 33.659-33.659l15-15-15-15c-35.102 0-63.659 28.557-63.659 63.659z" fill="#5f05a7"/><path d="m289.659 256c0 18.56-15.1 33.659-33.659 33.659v30c35.102 0 63.659-28.558 63.659-63.659s-28.557-63.659-63.659-63.659v30c18.56 0 33.659 15.099 33.659 33.659z" fill="#2d0390"/></g><g><g><path d="m77.647 170.294h30v171.411h-30z" fill="#5f05a7"/></g><g><path d="m404.353 170.294h30v171.411h-30z" fill="#2d0390"/></g></g><g><g><path d="m72.44 107.76c-40.008 0-72.44 32.432-72.44 72.439v5.095h92.647l24.835-38.768-24.835-38.766z" fill="#f79f5e"/><path d="m185.295 180.199c0-40.007-32.432-72.44-72.44-72.44h-20.208v77.535h92.647v-5.095z" fill="#fb6d4b"/></g><g><path d="m42.977 49.67v16.593c0 27.432 22.238 49.67 49.67 49.67l24.835-57.967-24.835-57.966c-27.432 0-49.67 22.238-49.67 49.67z" fill="#ffddce"/><path d="m92.647 0v115.934c27.432 0 49.671-22.238 49.671-49.67v-16.594c0-27.432-22.238-49.67-49.671-49.67z" fill="#ffccbd"/></g></g><g><g><path d="m399.145 107.76c-40.007 0-72.44 32.432-72.44 72.44v5.095h92.647l24.835-38.768-24.835-38.768h-20.207z" fill="#a20589"/><path d="m512 180.199c0-40.007-32.432-72.44-72.44-72.44h-20.208v77.535h92.648z" fill="#5f05a7"/></g><g><path d="m369.682 49.67v16.593c0 27.432 22.238 49.67 49.67 49.67l24.835-57.967-24.834-57.966c-27.432 0-49.671 22.238-49.671 49.67z" fill="#ffccbd"/><path d="m419.353 0v115.934c27.432 0 49.671-22.238 49.671-49.67v-16.594c-.001-27.432-22.239-49.67-49.671-49.67z" fill="#ffbda9"/></g></g><g><g><g><path d="m72.44 434.465c-40.007 0-72.44 32.432-72.44 72.44v5.095h92.647l24.835-38.768-24.835-38.768h-20.207z" fill="#9be183"/><path d="m185.295 506.905c0-40.007-32.432-72.44-72.44-72.44h-20.208v77.535h92.647v-5.095z" fill="#5ebe8e"/></g><g><path d="m42.977 376.376v16.593c0 27.432 22.238 49.67 49.67 49.67l24.835-57.967-24.835-57.967c-27.432 0-49.67 22.239-49.67 49.671z" fill="#ffddce"/><path d="m92.647 326.705v115.934c27.432 0 49.671-22.238 49.671-49.67v-16.593c0-27.432-22.238-49.671-49.671-49.671z" fill="#ffccbd"/></g></g><g><g><path d="m399.145 434.465c-40.007 0-72.44 32.432-72.44 72.44v5.095h92.647l24.835-38.768-24.835-38.768h-20.207z" fill="#063889"/><path d="m512 506.905c0-40.007-32.432-72.44-72.44-72.44h-20.208v77.535h92.648z" fill="#04275a"/></g><g><path d="m369.682 376.376v16.593c0 27.432 22.238 49.67 49.67 49.67l24.835-57.967-24.835-57.967c-27.431 0-49.67 22.239-49.67 49.671z" fill="#ffccbd"/><path d="m419.353 326.705v115.934c27.432 0 49.671-22.238 49.671-49.67v-16.593c-.001-27.432-22.239-49.671-49.671-49.671z" fill="#ffbda9"/></g></g></g></g></svg>